<svg width="215" height="203" xmlns="http://www.w3.org/2000/svg" xmlns:xlink="http://www.w3.org/1999/xlink" overflow="hidden"><defs><clipPath id="clip0"><rect x="602" y="270" width="215" height="203"/></clipPath><clipPath id="clip1"><rect x="653" y="331" width="117" height="117"/></clipPath><clipPath id="clip2"><rect x="653" y="331" width="117" height="117"/></clipPath><clipPath id="clip3"><rect x="653" y="331" width="117" height="117"/></clipPath></defs><g clip-path="url(#clip0)" transform="translate(-602 -270)"><path d="M603 371.5C603 315.443 650.682 270 709.5 270 768.318 270 816 315.443 816 371.5 816 427.557 768.318 473 709.5 473 650.682 473 603 427.557 603 371.5Z" fill="#FFC000" fill-rule="evenodd"/><g clip-path="url(#clip1)"><g clip-path="url(#clip2)"><g clip-path="url(#clip3)"><path d="M726.125 365.125 740.75 365.125 711.5 335.875C711.5 335.509 682.25 365.125 682.25 365.125L696.875 365.125 711.5 443.125 726.125 365.125Z" fill="#FFFFFF"/></g></g></g><path d="M639.09 325 657 325 626.91 366 609 366Z" fill="#FFFFFF" fill-rule="evenodd"/><path d="M661.716 325 680 325 649.284 366 631 366Z" fill="#FFFFFF" fill-rule="evenodd"/><path d="M684.716 325 703 325 672.284 366 654 366Z" fill="#FFFFFF" fill-rule="evenodd"/><path d="M30.0896 0 48 0 17.9104 41 0 41Z" fill="#FFFFFF" fill-rule="evenodd" transform="matrix(1 0 0 -1 719 366)"/><path d="M30.0896 0 48 0 17.9104 41 0 41Z" fill="#FFFFFF" fill-rule="evenodd" transform="matrix(1 0 0 -1 742 366)"/><path d="M30.7164 0 49 0 18.2836 41 0 41Z" fill="#FFFFFF" fill-rule="evenodd" transform="matrix(1 0 0 -1 764 366)"/></g></svg>